<svg xmlns="http://www.w3.org/2000/svg" viewBox="0 0 300 138" role="img" aria-labelledby="title">
  <title id="title">Forti Backup</title>
  <g transform="translate(118 2)">
    <path d="M32 4 56 15v16c0 14-8.7 23.4-24 29.2C16.7 54.4 8 45 8 31V15L32 4Z" fill="none" stroke="#27313A" stroke-width="5" stroke-linejoin="round"/>
    <path d="M34.5 17.5c6 .8 11 3.1 14.5 6.4v22.5c-3.8 4-8.6 7-14.5 9.4V17.5Z" fill="#27313A"/>
    <path d="M38.5 22.5c3.1.9 5.6 2.2 7.5 4v18.3c-2 2-4.5 3.8-7.5 5.4V22.5Z" fill="#F8FAFC"/>
    <circle cx="43" cy="36" r="1.5" fill="#27313A"/>
    <g fill="#D91F2A"><rect x="15" y="20" width="7" height="7" rx="1.4"/><rect x="24" y="20" width="7" height="7" rx="1.4"/><rect x="15" y="29" width="7" height="7" rx="1.4"/><rect x="15" y="38" width="7" height="7" rx="1.4"/><rect x="24" y="38" width="7" height="7" rx="1.4"/></g>
  </g>
  <g font-family="Arial, 'Segoe UI', sans-serif" font-size="34" font-weight="800">
    <text x="150" y="126" text-anchor="middle" letter-spacing="1.2"><tspan fill="#D91F2A">FORTI</tspan><tspan fill="#27313A"> BACKUP</tspan></text>
  </g>
</svg>
