<svg xmlns="http://www.w3.org/2000/svg" viewBox="0 0 64 64">
  <rect width="64" height="64" rx="14" fill="#06162F"/>
  <path d="M32 7 54 17v14c0 12.8-7.9 21.2-22 26.6C17.9 52.2 10 43.8 10 31V17L32 7Z" fill="none" stroke="#F8FAFC" stroke-width="4.5" stroke-linejoin="round"/>
  <path d="M34 19c5 .7 9 2.5 12 5.2v20c-3.1 3.2-7.1 5.8-12 7.8V19Z" fill="#F8FAFC"/><path d="M38 24c2 .7 3.7 1.6 5 2.8v16c-1.4 1.3-3 2.5-5 3.6V24Z" fill="#06162F"/><circle cx="40.5" cy="35" r="1.3" fill="#F8FAFC"/>
  <g fill="#EF2935"><rect x="16" y="21" width="6.5" height="6.5" rx="1.2"/><rect x="24.5" y="21" width="6.5" height="6.5" rx="1.2"/><rect x="16" y="29.5" width="6.5" height="6.5" rx="1.2"/><rect x="16" y="38" width="6.5" height="6.5" rx="1.2"/><rect x="24.5" y="38" width="6.5" height="6.5" rx="1.2"/></g>
  <path fill="#EF2935" d="M5 40c7 10.3 27.5 13.4 45.7-1.4L48 35.5 59 37l-3.7 10-2-3.7C33.5 59 10 53.4 5 42.4V40Z"/>
</svg>
